HIERARCHY
ROOT Hips
{
	OFFSET 0.000000 0.000000 0.000000
	CHANNELS 6 Xposition Yposition Zposition Zrotation Yrotation Xrotation 
	JOINT LeftUpLeg_virtual
	{
		OFFSET 0.000000 0.000000 0.000000
		CHANNELS 3 Zrotation Yrotation Xrotation
		JOINT LeftUpLeg
		{
			OFFSET 10.205400 -3.823500 0.155100
			CHANNELS 3 Zrotation Yrotation Xrotation
			JOINT LeftLeg
			{
				OFFSET 0.708757 -12.982077 0.567790
				CHANNELS 3 Zrotation Yrotation Xrotation
				JOINT LeftFoot
				{
					OFFSET -0.708756 -10.717838 -2.184338
					CHANNELS 3 Zrotation Yrotation Xrotation
					JOINT LeftToeBase
					{
						OFFSET 0.108149 -7.191104 7.560241
						CHANNELS 3 Zrotation Yrotation Xrotation
						End Site
						{
							OFFSET 0.000000 0.000000 0.000000
						}
					}
				}
			}
		}
	}
	JOINT RightUpLeg_virtual
	{
		OFFSET 0.000000 0.000000 0.000000
		CHANNELS 3 Zrotation Yrotation Xrotation
		JOINT RightUpLeg
		{
			OFFSET -10.205400 -3.823500 0.005500
			CHANNELS 3 Zrotation Yrotation Xrotation
			JOINT RightLeg
			{
				OFFSET -0.708756 -12.982134 0.610632
				CHANNELS 3 Zrotation Yrotation Xrotation
				JOINT RightFoot
				{
					OFFSET 0.708754 -10.717769 -1.945823
					CHANNELS 3 Zrotation Yrotation Xrotation
					JOINT RightToeBase
					{
						OFFSET -0.108140 -7.191069 7.372968
						CHANNELS 3 Zrotation Yrotation Xrotation
						End Site
						{
							OFFSET 0.000000 0.000000 0.000000
						}
					}
				}
			}
		}
	}
	JOINT Spine_virtual
	{
		OFFSET 0.000000 0.000000 0.000000
		CHANNELS 3 Zrotation Yrotation Xrotation
		JOINT Spine
		{
			OFFSET 0.000000 6.876099 0.125700
			CHANNELS 3 Zrotation Yrotation Xrotation
			JOINT Spine1
			{
				OFFSET 0.000000 8.022060 0.146608
				CHANNELS 3 Zrotation Yrotation Xrotation
				JOINT Spine2
				{
					OFFSET 0.000000 9.168068 0.167552
					CHANNELS 3 Zrotation Yrotation Xrotation
					JOINT Neck_virtual
					{
						OFFSET 0.000000 0.000000 0.000000
						CHANNELS 3 Zrotation Yrotation Xrotation
						JOINT Neck
						{
							OFFSET 0.000000 10.314075 0.188496
							CHANNELS 3 Zrotation Yrotation Xrotation
							JOINT Head
							{
								OFFSET 0.000000 7.643700 -2.377400
								CHANNELS 3 Zrotation Yrotation Xrotation
								End Site
								{
									OFFSET 0.000000 0.000000 0.000000
								}
							}
						}
					}
					JOINT LeftShoulder_virtual
					{
						OFFSET 0.000000 0.000000 0.000000
						CHANNELS 3 Zrotation Yrotation Xrotation
						JOINT LeftShoulder
						{
							OFFSET 4.392200 8.824978 0.174984
							CHANNELS 3 Zrotation Yrotation Xrotation
							JOINT LeftArm
							{
								OFFSET 8.771219 -2.981674 -0.026999
								CHANNELS 3 Zrotation Yrotation Xrotation
								JOINT LeftForeArm
								{
									OFFSET 8.512804 0.000000 -0.000000
									CHANNELS 3 Zrotation Yrotation Xrotation
									JOINT LeftHand
									{
										OFFSET 18.484802 0.000000 -0.000000
										CHANNELS 3 Zrotation Yrotation Xrotation
										End Site
										{
											OFFSET 0.000000 0.000000 0.000000
										}
									}
								}
							}
						}
					}
					JOINT RightShoulder_virtual
					{
						OFFSET 0.000000 0.000000 0.000000
						CHANNELS 3 Zrotation Yrotation Xrotation
						JOINT RightShoulder
						{
							OFFSET -4.392200 8.824993 0.141379
							CHANNELS 3 Zrotation Yrotation Xrotation
							JOINT RightArm
							{
								OFFSET -8.771282 -2.981682 -0.094208
								CHANNELS 3 Zrotation Yrotation Xrotation
								JOINT RightForeArm
								{
									OFFSET -8.494598 0.000000 0.000000
									CHANNELS 3 Zrotation Yrotation Xrotation
									JOINT RightHand
									{
										OFFSET -18.483803 0.000000 0.000001
										CHANNELS 3 Zrotation Yrotation Xrotation
										End Site
										{
											OFFSET 0.000000 0.000000 0.000000
										}
									}
								}
							}
						}
					}
				}
			}
		}
	}
}
MOTION
Frames: 11
Frame Time: 0.033333
5.210790 34.487026 -6.876373 -179.960704 1.640746 -179.856585 -0.900521 -3.274718 9.399501 -9.565900 -2.534195 -25.588447 15.140142 4.482190 19.612651 -8.487284 0.717370 0.938829 0.000000 0.000000 0.000000 2.307264 -0.862105 9.066801 5.875535 7.008003 -24.618215 -8.222937 -0.166637 20.168396 6.579855 1.053118 1.846334 0.000000 0.000000 0.000000 2.264079 0.122155 -4.918875 -2.230418 -1.467723 -7.140978 -0.444104 -2.296395 10.558986 -0.010965 0.001832 0.021154 -0.930048 -0.152165 13.341980 0.838776 -2.896898 14.240527 0.000000 0.000000 0.000000 0.270486 0.631354 10.377065 -16.313699 -12.724860 2.360177 -52.227284 20.732773 11.147184 -1.541967 -34.132136 0.074800 0.000000 0.000000 0.000000 -2.939909 1.538443 10.006207 22.327448 5.033173 5.040339 48.506962 -14.208963 14.033543 -4.886493 27.673765 -3.466583 0.000000 0.000000 0.000000 
5.198362 34.490013 -6.843359 -179.985607 1.519229 -179.785865 -0.825138 -3.479730 9.364632 -9.502390 -2.942885 -25.427647 15.044537 4.078546 19.717554 -8.863432 0.376282 0.838572 0.000000 0.000000 0.000000 2.166071 -0.605243 9.176449 6.094942 6.664923 -24.404946 -8.369893 -0.518656 20.511850 6.139286 0.688504 2.416550 0.000000 0.000000 0.000000 2.219921 0.124593 -4.986676 -2.230682 -1.525926 -7.158104 -0.442761 -2.341703 10.557322 0.011859 -0.030884 0.074637 -0.945652 -0.127703 13.252391 0.863735 -2.915400 14.113611 0.000000 0.000000 0.000000 0.228125 0.571414 10.386535 -16.404728 -12.731891 2.424424 -52.355015 20.640251 11.120421 -1.602141 -34.046379 0.161330 0.000000 0.000000 0.000000 -2.969899 1.459164 10.006111 22.337022 4.988244 5.001978 48.457375 -14.247821 14.022208 -4.818966 27.662488 -3.401930 0.000000 0.000000 0.000000 
5.190617 34.485931 -6.807009 179.998584 1.595725 -179.776863 -0.817835 -3.448352 9.204611 -9.520466 -2.823651 -25.297202 14.985748 4.083513 19.712129 -8.867879 0.370035 0.817265 0.000000 0.000000 0.000000 2.160062 -0.559956 9.044026 6.046885 6.619853 -24.394437 -8.328137 -0.670991 20.566620 6.180937 0.814545 2.474384 0.000000 0.000000 0.000000 2.186982 0.157993 -5.061845 -2.216557 -1.509552 -7.142293 -0.402234 -2.334771 10.581142 -0.052856 -0.007910 0.013771 -0.917110 -0.188627 13.376515 0.809868 -2.989657 14.113307 0.000000 0.000000 0.000000 0.285383 0.544277 10.461420 -16.470055 -12.849840 2.371446 -52.486216 20.593782 11.281511 -1.454020 -34.132887 0.016713 0.000000 0.000000 0.000000 -2.911526 1.474025 10.049666 22.413863 4.942830 5.137431 48.537998 -14.266796 14.033943 -4.922114 27.785018 -3.482650 0.000000 0.000000 0.000000 
5.190817 34.478893 -6.769433 179.999021 1.756638 -179.779964 -0.750992 -3.551798 9.035241 -9.595813 -2.682580 -25.126716 14.987587 4.116715 19.723245 -8.864133 0.379832 0.819458 0.000000 0.000000 0.000000 2.185513 -0.656676 8.875507 6.062275 6.336833 -24.373332 -8.209422 -0.481362 20.585620 6.197079 0.999471 2.558072 0.000000 0.000000 0.000000 2.187651 0.152562 -5.148201 -2.214643 -1.632453 -7.105240 -0.478670 -2.487973 10.630792 -0.010756 0.011427 0.052138 -0.968571 -0.102927 13.334809 0.810018 -2.991653 14.080424 0.000000 0.000000 0.000000 0.234781 0.668692 10.333445 -16.532114 -12.687337 2.389179 -52.604809 20.732706 11.133636 -1.485801 -34.446768 0.047180 0.000000 0.000000 0.000000 -2.958160 1.623270 10.125003 22.449858 5.114434 5.080729 48.668533 -14.308630 13.867424 -4.938721 27.977080 -3.489731 0.000000 0.000000 0.000000 
5.193947 34.477974 -6.729142 179.974829 2.036727 -179.791916 -0.729153 -3.653327 8.912536 -9.653914 -2.444102 -24.998499 14.955702 4.084918 19.752308 -8.777243 0.465783 0.795383 0.000000 0.000000 0.000000 2.217509 -0.822145 8.696448 5.971346 6.355882 -24.376363 -8.187387 -0.743566 20.633614 6.549336 1.240656 2.643115 0.000000 0.000000 0.000000 2.193367 0.022377 -5.187039 -2.213149 -1.426049 -7.085881 -0.455153 -2.305099 10.636556 0.025193 -0.001549 -0.015403 -0.960601 -0.127447 13.416081 0.733262 -3.038778 14.007519 0.000000 0.000000 0.000000 0.232225 0.586851 10.500092 -16.584565 -12.785613 2.327427 -52.705332 20.877870 10.995329 -1.520799 -34.748403 0.071419 0.000000 0.000000 0.000000 -2.967581 1.524969 10.191950 22.556727 5.058895 5.221788 48.825689 -14.251530 13.827157 -5.057271 28.293799 -3.603962 0.000000 0.000000 0.000000 
5.190822 34.485420 -6.680165 -179.969064 2.411526 -179.818144 -0.648447 -3.641119 8.864517 -9.691209 -2.221313 -24.939435 14.817073 4.094572 19.713208 -8.659415 0.577355 0.826028 0.000000 0.000000 0.000000 2.357612 -0.944628 8.540713 5.897671 6.362582 -24.421825 -8.257736 -0.733849 20.601889 6.824308 1.358924 2.816956 0.000000 0.000000 0.000000 2.231665 -0.061728 -5.175643 -2.138941 -1.423715 -7.073631 -0.526170 -2.322132 10.676615 0.008803 -0.015640 0.056023 -0.983502 -0.130545 13.331501 0.642671 -3.070956 13.970758 0.000000 0.000000 0.000000 0.243354 0.648930 10.459665 -16.613527 -12.673217 2.347083 -52.644520 21.200335 10.817182 -1.576340 -35.026310 0.126225 0.000000 0.000000 0.000000 -2.975055 1.552231 10.114954 22.639859 5.132217 5.157439 48.934327 -14.227573 13.993219 -5.208062 28.657018 -3.713478 0.000000 0.000000 0.000000 
5.181302 34.497578 -6.628784 179.971537 2.718874 -179.851940 -0.713564 -3.663127 8.867998 -9.707505 -1.976241 -24.940364 14.782662 4.086330 19.754505 -8.526445 0.675032 0.827822 0.000000 0.000000 0.000000 2.379931 -1.096196 8.423928 5.883836 6.273938 -24.519184 -8.256129 -0.368584 20.459343 6.988074 1.454051 3.030532 0.000000 0.000000 0.000000 2.190683 -0.116281 -5.074407 -2.170074 -1.409169 -7.092511 -0.497344 -2.309752 10.605620 0.026993 -0.007794 0.103439 -1.011858 -0.104190 13.343304 0.624775 -3.057839 13.887035 0.000000 0.000000 0.000000 0.191640 0.641843 10.491012 -16.617236 -12.632164 2.335768 -52.422535 21.434604 10.637453 -1.626121 -35.323860 0.158312 0.000000 0.000000 0.000000 -2.996734 1.547812 10.177362 22.692515 5.194298 5.196418 48.966688 -14.252417 14.193003 -5.288643 28.985684 -3.739488 0.000000 0.000000 0.000000 
5.162814 34.511841 -6.589746 -179.976222 2.987086 -179.865437 -0.686437 -3.671232 8.906181 -9.735513 -1.844716 -24.955689 14.663337 4.060346 19.689940 -8.336494 0.784634 0.896230 0.000000 0.000000 0.000000 2.504379 -1.203774 8.361823 5.847223 6.228118 -24.618029 -8.303076 -0.106310 20.362865 7.169365 1.502865 3.268153 0.000000 0.000000 0.000000 2.209941 -0.155340 -4.971293 -2.112653 -1.438492 -7.155217 -0.528322 -2.318733 10.666367 -0.016668 -0.016435 0.045931 -1.028671 -0.130442 13.367094 0.584261 -3.066226 13.901516 0.000000 0.000000 0.000000 0.193302 0.656722 10.458984 -16.648257 -12.574642 2.396266 -52.093006 21.629017 10.456145 -1.750536 -35.564433 0.232243 0.000000 0.000000 0.000000 -2.983076 1.584966 10.197548 22.696454 5.288560 5.278323 48.855705 -14.211583 14.538915 -5.394665 29.225833 -3.829343 0.000000 0.000000 0.000000 
5.138430 34.525322 -6.543551 -179.987834 3.206157 -179.900435 -0.703969 -3.666685 8.949246 -9.755212 -1.722516 -24.967891 14.617544 3.989569 19.662060 -8.127794 0.846743 0.844766 0.000000 0.000000 0.000000 2.583614 -1.334468 8.293935 5.781628 6.169336 -24.731920 -8.314206 0.206085 20.311762 7.354323 1.576896 3.526508 0.000000 0.000000 0.000000 2.164466 -0.008713 -4.849127 -2.077150 -1.484613 -7.192347 -0.564261 -2.350098 10.628382 -0.011180 -0.066567 0.043821 -1.051403 -0.160776 13.388504 0.591129 -3.066388 13.904426 0.000000 0.000000 0.000000 0.159356 0.586308 10.504198 -16.693143 -12.617413 2.416341 -51.719282 21.736520 10.604054 -1.732083 -35.694046 0.191648 0.000000 0.000000 0.000000 -3.026566 1.447802 10.268577 22.641259 5.524584 5.309672 48.635069 -14.182216 14.788695 -5.449238 29.407608 -3.851237 0.000000 0.000000 0.000000 
5.103498 34.536133 -6.500798 -179.983503 3.413646 -179.893577 -0.743170 -3.631837 8.946513 -9.784506 -1.698156 -24.986330 14.544179 3.880525 19.588559 -7.843340 0.906822 0.815545 0.000000 0.000000 0.000000 2.659859 -1.421241 8.191703 5.658601 6.103342 -24.886996 -8.334597 0.236729 20.432765 7.636781 1.629251 3.729906 0.000000 0.000000 0.000000 2.167487 -0.167496 -4.820900 -2.019542 -1.487977 -7.235616 -0.594618 -2.298927 10.647116 -0.007342 0.009125 -0.004982 -1.098794 -0.142114 13.408560 0.656427 -3.062570 13.954357 0.000000 0.000000 0.000000 0.134108 0.607861 10.593065 -16.794906 -12.577687 2.290830 -51.386897 21.915062 10.693085 -1.940345 -35.715636 0.377662 0.000000 0.000000 0.000000 -3.050853 1.524043 10.223900 22.594587 5.600536 5.382862 48.440883 -14.193348 14.884208 -5.515265 29.633093 -3.883629 0.000000 0.000000 0.000000 
5.046791 34.541485 -6.465195 -179.970867 3.571027 -179.947044 -0.748704 -3.582813 8.942461 -9.884917 -1.668157 -25.010894 14.441808 3.815483 19.565336 -7.567230 0.892963 0.764363 0.000000 0.000000 0.000000 2.736128 -1.491402 8.122726 5.476545 6.137765 -25.048013 -8.390934 0.342725 20.651975 7.899162 1.656443 3.827610 0.000000 0.000000 0.000000 2.162870 -0.141209 -4.778202 -1.952496 -1.527943 -7.238132 -0.620093 -2.298137 10.636837 0.019970 0.005634 0.009624 -1.169779 -0.085505 13.414795 0.762833 -3.070377 14.042202 0.000000 0.000000 0.000000 0.049601 0.614210 10.612646 -16.918346 -12.468409 2.244502 -51.153315 22.152306 10.871872 -2.016913 -35.680208 0.480821 0.000000 0.000000 0.000000 -3.133217 1.512109 10.205152 22.535514 5.774415 5.425771 48.272027 -14.241372 14.908235 -5.612844 29.861177 -3.978817 0.000000 0.000000 0.000000 
